# xmcd CD database file
#
# Track frame offsets:
#	150
#	15212
#	61487
#	77612
#	91112
#	118662
#	136217
#	157187
#	177665
#	207705
#	221662
#	234785
#	253130
#	266452
#	281627
#
# Disc length: 3937 seconds
#
# Revision: 0
# Processed by: cddbd v1.5.1PL2 Copyright (c) Steve Scherf et al.
# Submitted via: CDex 1.51
#
DISCID=d40f5f0f
DTITLE=Lutz Gerlach - Pantha Rhei
DYEAR=1998
DGENRE=Jazz
TTITLE0=outside inside
TTITLE1=pantha rhei
TTITLE2=the spring of everything
TTITLE3=can you hear the rain (at your window)
TTITLE4=white water
TTITLE5=island girl (behind the dep river)
TTITLE6=falling down
TTITLE7=Grand Dahme
TTITLE8=Frauentog
TTITLE9=die Elefanten tanzen (.. im Fluss)
TTITLE10=Julien
TTITLE11=La Mehr
TTITLE12=Flussbett
TTITLE13=inside outside
TTITLE14=nach der Flut
EXTD=YEAR: 1998
EXTT0=
EXTT1=
EXTT2=
EXTT3=
EXTT4=
EXTT5=
EXTT6=
EXTT7=
EXTT8=
EXTT9=
EXTT10=
EXTT11=
EXTT12=
EXTT13=
EXTT14=
PLAYORDER=
